<svg width="24" height="24" viewBox="0 0 24 24" fill="none" xmlns="http://www.w3.org/2000/svg">
<path d="M8.07314 14.5377C7.44275 14.5677 6.83902 14.801 6.3523 15.2027C5.86558 15.6044 5.52206 16.153 5.37314 16.7663C5.308 17.0251 5.02 17.1366 4.76971 17.0971C4.49714 17.0543 4.35829 16.6943 4.46114 16.3857C4.82629 15.2697 5.57029 14.4143 6.54229 13.9514C6.11451 13.608 5.804 13.1401 5.65372 12.6125C5.50343 12.085 5.52078 11.5237 5.70338 11.0064C5.88598 10.4891 6.2248 10.0413 6.67298 9.72498C7.12116 9.40863 7.65656 9.23936 8.20514 9.24057C9.66914 9.24057 10.8571 10.4303 10.8571 11.8909C10.8571 12.7 10.492 13.4251 9.91943 13.9137C10.9206 14.3611 11.6817 15.2269 12.0914 16.3429C12.2046 16.6514 12.1309 16.9583 11.8737 17.0971C11.8022 17.1229 11.726 17.1335 11.6501 17.1282C11.5742 17.1229 11.5003 17.1019 11.433 17.0664C11.3657 17.0309 11.3066 16.9818 11.2594 16.9221C11.2122 16.8625 11.178 16.7936 11.1589 16.72C10.816 15.4034 9.75314 14.5823 8.40743 14.5343C8.29618 14.5424 8.18453 14.5435 8.07314 14.5377ZM21.8149 17.68V15.1737C21.8149 14.7897 22.168 14.4846 22.5777 14.4846C22.6699 14.4816 22.7618 14.4972 22.8478 14.5305C22.9338 14.5639 23.0122 14.6142 23.0783 14.6786C23.1444 14.7429 23.1968 14.8199 23.2325 14.905C23.2681 14.9901 23.2862 15.0815 23.2857 15.1737V18.2954C23.2857 18.9774 23.0148 19.6315 22.5326 20.1137C22.0503 20.5959 21.3963 20.8669 20.7143 20.8669H4.19029C2.43143 20.8669 1 19.564 1 17.9526V6.57486C1 5.89287 1.27092 5.23882 1.75315 4.75658C2.23539 4.27435 2.88944 4.00343 3.57143 4.00343L20.0937 4C21.8543 4 23.2857 5.30286 23.2857 6.916L23.2823 11.9217C23.2703 12.2937 22.9737 12.5611 22.5777 12.5611C22.1783 12.5611 21.8286 12.2937 21.8149 11.9183L21.8097 6.916C21.8097 6.06914 21.0383 5.47771 20.0954 5.47771H4.18857C3.73391 5.47771 3.29788 5.65833 2.97639 5.97982C2.6549 6.30131 2.47429 6.73734 2.47429 7.192V17.9543C2.47429 18.7994 3.24571 19.396 4.18857 19.396H20.0989C20.5535 19.396 20.9895 19.2154 21.311 18.8939C21.6325 18.5724 21.8131 18.1364 21.8131 17.6817L21.8149 17.68ZM8.20686 10.3994C7.82367 10.4178 7.46227 10.583 7.19758 10.8606C6.9329 11.1383 6.78524 11.5072 6.78524 11.8909C6.78524 12.2745 6.9329 12.6434 7.19758 12.9211C7.46227 13.1988 7.82367 13.3639 8.20686 13.3823C8.59004 13.3639 8.95145 13.1988 9.21613 12.9211C9.48082 12.6434 9.62847 12.2745 9.62847 11.8909C9.62847 11.5072 9.48082 11.1383 9.21613 10.8606C8.95145 10.583 8.59004 10.4178 8.20686 10.3994ZM18.5269 17.0371H14.6286C14.1709 17.0371 13.7886 16.7457 13.7886 16.3686C13.7886 15.9914 14.1709 15.7017 14.6286 15.7017H18.5234C18.9829 15.7017 19.3634 15.9914 19.3634 16.3703C19.3634 16.7474 18.9811 17.0371 18.5234 17.0371H18.5269ZM18.5269 10.5743H14.6286C14.1709 10.5743 13.7886 10.2846 13.7886 9.90743C13.7886 9.53029 14.1709 9.24057 14.6286 9.24057H18.5234C18.9829 9.24057 19.3634 9.53029 19.3634 9.90914C19.3634 10.2863 18.9811 10.5743 18.5234 10.5743H18.5269ZM18.5269 13.54H14.6286C14.1709 13.54 13.7886 13.252 13.7886 12.8731C13.7886 12.496 14.1709 12.2063 14.6286 12.2063H18.5234C18.9811 12.2063 19.3634 12.496 19.3634 12.8749C19.3634 13.252 18.9829 13.54 18.5234 13.54H18.5269Z" fill="white"/>
</svg>
